<svg xmlns="http://www.w3.org/2000/svg" width="1317" height="1485"><g opacity="0.2"><defs><linearGradient id="idwkC9hEltpg2095604930" gradientTransform="rotate(90, 0.5, 0.5)"><stop offset="0" stop-color="#647fc9" stop-opacity="1"></stop><stop offset="1" stop-color="#ab86d3" stop-opacity="1"></stop></linearGradient></defs><path d="M 51.553 627.299 C 126.59 559.623 201.627 491.947 275.577 424.27 C 425.651 288.918 575.726 153.565 725.802 18.212 C 729.064 14.938 732.326 12.755 734.499 10.571 C 737.761 7.297 741.023 5.114 743.202 2.931 C 744.285 1.839 745.375 0.747 746.464 0.747 C 746.464 0.747 747.547 1.839 748.637 2.931 C 750.809 5.114 752.989 7.297 756.251 10.571 C 758.423 12.755 760.603 16.029 763.865 19.304 C 789.962 48.776 817.149 78.248 843.253 107.72 C 918.289 189.586 993.325 272.544 1061.837 357.685 C 1154.274 472.298 1232.579 588.003 1277.167 706.981 C 1321.754 824.872 1332.623 946.033 1290.215 1069.381 C 1247.8 1193.813 1152.102 1322.619 980.277 1456.877 C 948.738 1479.8 990.235 1490.729 950 1482 C 909.765 1473.264 997.9 1390.429 980.5 1355.5 C 960.927 1319.481 1086.321 1345.7 1088.5 1319.5 C 1090.673 1294.397 947.689 1283.332 964 1261.5 C 971.069 1251.674 1003.164 1258.46 1012 1248.5 C 1020.836 1238.54 940.214 1205.871 950 1195.5 C 952.173 1193.319 1010.917 1221.187 1012 1219 C 1033.752 1196.077 945.51 1160.79 964 1133.5 C 1145.618 840.965 699.698 445.01 391.939 714.627 C 378.89 726.633 364.752 739.73 349.527 753.917 L 348.439 755.014 C 334.302 769.201 319.077 783.394 303.852 796.491 C 272.315 824.872 238.603 851.065 205.978 868.529 C 173.353 885.994 140.728 893.639 110.278 887.091 C 79.828 879.446 49.378 857.62 18.928 808.497 C -14.784 756.104 -0.647 673.142 51.553 627.299 Z" fill="url(#idwkC9hEltpg2095604930)"></path></g></svg>